# xmcd
#
# Track frame offsets:
#	150
#	28207
#	51800
#	71810
#	92245
#	106892
#	124640
#	138930
#	161947
#	184035
#	201215
#	230450
#
# Disc length: 3207 seconds
#
# Revision: 1
# Processed by: cddbd v1.5PL3 Copyright (c) Steve Scherf et al.
# Submitted via: audiograbber 1.83.01
#
DISCID=ab0c850c
DTITLE=Hamet Kaya - Iyimser Bir Gül (Adi: Bahtiyar)
DYEAR=1900
DGENRE=
TTITLE0=Gökyüzü
TTITLE1=Iyimser Bir Gül
TTITLE2=Birazdan Kudurur Deniz
TTITLE3=Bu Yalnizlik Benim Degil
TTITLE4=Çek Mustafa çek
TTITLE5=Evlerinin Önü
TTITLE6=Dogum Günü
TTITLE7=Kaçak Ve Anne
TTITLE8=Kardelenler Açinca
TTITLE9=Kaçakci Kurban
TTITLE10=Yollarina Baka Baka
TTITLE11=Amanin Minnos
EXTD=
EXTT0=
EXTT1=
EXTT2=
EXTT3=
EXTT4=
EXTT5=
EXTT6=
EXTT7=
EXTT8=
EXTT9=
EXTT10=
EXTT11=
PLAYORDER=
